<?xml version="1.0" encoding="UTF-8"?>
<svg width="8.0166mm" height="8.0166mm" version="1.1" viewBox="0 0 8.0166 8.0166" xmlns="http://www.w3.org/2000/svg" xmlns:cc="http://creativecommons.org/ns#" xmlns:dc="http://purl.org/dc/elements/1.1/" xmlns:rdf="http://www.w3.org/1999/02/22-rdf-syntax-ns#">
 <metadata>
  <rdf:RDF>
   <cc:Work rdf:about="">
    <dc:format>image/svg+xml</dc:format>
    <dc:type rdf:resource="http://purl.org/dc/dcmitype/StillImage"/>
    <dc:title/>
   </cc:Work>
  </rdf:RDF>
 </metadata>
 <g transform="translate(-188.52 -60.012)">
  <g transform="matrix(.021872 0 0 .021872 188.41 59.937)">
   <path d="m272.1 343.3c-16.09 16.082-42.188 16.082-58.277 0l-196.69-196.69c-16.09-16.094-16.09-27.621 0-43.711l87.414-87.418c16.094-16.09 27.621-16.09 43.715 0l196.69 196.69c16.094 16.094 16.094 42.188 0 58.281z" fill="#bf684c"/>
   <path d="m171.58 155.36-50.328-50.328 58.281-58.277-14.578-14.566-58.27 58.277-38.562-38.559-14.566 14.574 38.562 38.551-58.281 58.281 14.566 14.566 58.281-58.277 50.328 50.324z" fill="#8a4a35"/>
   <path d="m272.1 357.87c-16.09 16.09-42.188 16.09-58.277 0l-101.98-101.98 145.69-145.69 101.98 101.98c16.09 16.094 16.09 42.188 0 58.281z" fill="#dc2e42"/>
   <path d="m132.88 276.93 48.145 48.152 81.953-209.45-5.4414-5.4492-15.492-9.6016z" fill="#bd1730"/>
   <path d="m235.68 88.332 21.852 21.852c-7.2812 21.863-87.414 160.27-101.99 189.41 0 0-7.2812 21.852-25.496 3.6484l-54.645-54.645c-6.9922-6.9961-7.0547-22.066 0-29.133l131.14-131.13c14.57-14.566 29.145 0 29.145 0z" fill="#cad4dc"/>
  </g>
 </g>
</svg>
