<?xml version="1.0" encoding="UTF-8"?>
<svg width="8.0166mm" height="8.0166mm" version="1.1" viewBox="0 0 8.0166 8.0166" xmlns="http://www.w3.org/2000/svg" xmlns:cc="http://creativecommons.org/ns#" xmlns:dc="http://purl.org/dc/elements/1.1/" xmlns:rdf="http://www.w3.org/1999/02/22-rdf-syntax-ns#">
 <defs>
  <clipPath id="clipPath987">
   <path d="m0 0h96.875v96.875h-96.875z" clip-rule="evenodd"/>
  </clipPath>
 </defs>
 <metadata>
  <rdf:RDF>
   <cc:Work rdf:about="">
    <dc:format>image/svg+xml</dc:format>
    <dc:type rdf:resource="http://purl.org/dc/dcmitype/StillImage"/>
    <dc:title/>
   </cc:Work>
  </rdf:RDF>
 </metadata>
 <g transform="translate(-187.19 -82.301)">
  <g transform="matrix(.084667 0 0 .084667 187.1 82.21)">
   <g clip-path="url(#clipPath987)">
    <g transform="matrix(2.6614 0 0 2.6614 0 -.26614)">
     <path d="m26.339 33.496c-1.562 1.561-4.095 1.561-5.657 0l-19.092-19.092c-1.562-1.562-1.562-2.681 0-4.243l8.485-8.485c1.562-1.562 2.681-1.562 4.243 0l19.092 19.092c1.562 1.562 1.562 4.095 0 5.657z" fill="#c1694f"/>
     <path d="m16.582 15.253-4.885-4.885 5.657-5.657-1.415-1.414-5.656 5.657-3.743-3.743-1.414 1.415 3.743 3.742-5.657 5.657 1.414 1.414 5.657-5.657 4.885 4.885z" fill="#8a4b38"/>
     <path d="m26.339 34.91c-1.562 1.562-4.095 1.562-5.657 0l-9.899-9.899 14.142-14.142 9.899 9.899c1.562 1.562 1.562 4.095 0 5.657z" fill="#8c52ff"/>
     <path d="m12.825 27.053 4.673 4.674 7.955-20.33-0.528-0.529-1.504-0.932z" fill="#cb6ce6"/>
     <path d="m22.804 8.747 2.121 2.121c-0.707 2.122-8.485 15.557-9.9 18.385 0 0-0.707 2.121-2.475 0.354l-5.304-5.304c-0.679-0.679-0.685-2.142 0-2.828l12.729-12.728c1.414-1.414 2.829 0 2.829 0z" fill="#ccd6dd"/>
    </g>
   </g>
  </g>
 </g>
</svg>
