<?xml version="1.0" encoding="UTF-8"?>
<svg width="8.9093mm" height="8.995mm" version="1.1" viewBox="0 0 8.9093 8.995" xmlns="http://www.w3.org/2000/svg" xmlns:cc="http://creativecommons.org/ns#" xmlns:dc="http://purl.org/dc/elements/1.1/" xmlns:rdf="http://www.w3.org/1999/02/22-rdf-syntax-ns#">
 <defs>
  <clipPath id="clipPath1113">
   <path d="m0 0h1562.5v1562.5h-1562.5z" clip-rule="evenodd"/>
  </clipPath>
  <clipPath id="clipPath1121">
   <path d="m0 0h106v108h-106z"/>
  </clipPath>
  <clipPath id="clipPath1125">
   <path d="m0.75061 0.86572h106.25v106.25h-106.25z" clip-rule="evenodd"/>
  </clipPath>
 </defs>
 <metadata>
  <rdf:RDF>
   <cc:Work rdf:about="">
    <dc:format>image/svg+xml</dc:format>
    <dc:type rdf:resource="http://purl.org/dc/dcmitype/StillImage"/>
    <dc:title/>
   </cc:Work>
  </rdf:RDF>
 </metadata>
 <g transform="translate(-184.53 -208.72)">
  <g transform="matrix(.084667 0 0 .084667 134.94 141.93)">
   <g clip-path="url(#clipPath1113)">
    <g transform="translate(585,788)">
     <g clip-path="url(#clipPath1121)" opacity=".5176">
      <g clip-path="url(#clipPath1125)">
       <g transform="matrix(.30065 0 0 .30065 .76562 .86572)" fill="#cb6ce6">
        <path d="m123.73 40.683c45.869 0 83.053 37.177 83.053 83.024 0 45.884-37.184 83.089-83.053 83.089-45.869 0-83.046-37.198-83.046-83.089-8e-6 -45.847 37.177-83.024 83.046-83.024m0-40.683c-68.218 0-123.73 55.511-123.73 123.71 0 68.246 55.512 123.73 123.73 123.73 68.225 0 123.72-55.49 123.72-123.73 0.00101-68.197-55.49-123.71-123.71-123.71z"/>
        <path d="m316.09 353.37c-8.692 0-17.335-3.301-23.963-9.929l-60.168-60.183c-13.25-13.228-13.25-34.655 0-47.934 13.249-13.234 34.684-13.234 47.933 0l60.169 60.19c13.249 13.242 13.249 34.684 0 47.926-6.621 6.629-15.271 9.93-23.971 9.93z"/>
       </g>
       <g transform="matrix(.21265 .21253 -.21253 .21265 68.082 -26.433)">
        <path d="m198.23 204.66h46.742v40.687h-46.742z" fill="#cb6ce6"/>
       </g>
      </g>
     </g>
    </g>
   </g>
  </g>
 </g>
</svg>
