<?xml version="1.0" encoding="UTF-8"?>
<svg width="7.9322mm" height="7.6729mm" version="1.1" viewBox="0 0 7.9322 7.6729" xmlns="http://www.w3.org/2000/svg" xmlns:cc="http://creativecommons.org/ns#" xmlns:dc="http://purl.org/dc/elements/1.1/" xmlns:rdf="http://www.w3.org/1999/02/22-rdf-syntax-ns#">
 <defs>
  <clipPath id="clipPath1067">
   <path d="m156.67 56.008h93.75v90.625h-93.75z" clip-rule="evenodd"/>
  </clipPath>
 </defs>
 <metadata>
  <rdf:RDF>
   <cc:Work rdf:about="">
    <dc:format>image/svg+xml</dc:format>
    <dc:type rdf:resource="http://purl.org/dc/dcmitype/StillImage"/>
    <dc:title/>
   </cc:Work>
  </rdf:RDF>
 </metadata>
 <g transform="translate(-181.47 -175.4)">
  <g transform="matrix(.084667 0 0 .084667 168.2 170.66)">
   <g clip-path="url(#clipPath1067)">
    <g transform="matrix(.25266 0 0 .24829 152.99 51.589)">
     <path d="m296.4 200.3c0 6.2247-0.61679 12.39-1.8504 18.495-1.2336 6.105-3.0602 12.033-5.48 17.784s-5.3861 11.214-8.8991 16.39c-3.5129 5.1756-7.505 9.9642-11.976 14.366-4.4712 4.4015-9.3355 8.3314-14.593 11.79s-10.807 6.3784-16.649 8.7605-11.864 4.1803-18.065 5.3946c-6.2016 1.2144-12.464 1.8216-18.787 1.8216-6.3232-3e-5 -12.586-0.60724-18.787-1.8216-6.2016-1.2144-12.223-3.0126-18.065-5.3946-5.8418-2.3821-11.391-5.3022-16.649-8.7604-5.2575-3.4582-10.122-7.3881-14.593-11.79-4.4711-4.4015-8.4632-9.1901-11.976-14.366-3.513-5.1756-6.4793-10.639-8.8991-16.39-2.4198-5.7508-4.2464-11.679-5.48-17.784-1.2336-6.1051-1.8504-12.27-1.8504-18.495 0-6.2247 0.61679-12.39 1.8504-18.495 1.2336-6.1051 3.0603-12.033 5.48-17.784 2.4198-5.7508 5.3861-11.214 8.8991-16.39 3.513-5.1756 7.505-9.9641 11.976-14.366 4.4712-4.4015 9.3355-8.3314 14.593-11.79 5.2575-3.4582 10.807-6.3784 16.649-8.7605 5.8418-2.3821 11.864-4.1803 18.065-5.3946 6.2016-1.2144 12.464-1.8216 18.787-1.8216 6.3231 0 12.586 0.60719 18.787 1.8216 6.2016 1.2144 12.223 3.0126 18.065 5.3947 5.8418 2.3821 11.392 5.3022 16.649 8.7605 5.2575 3.4582 10.122 7.3881 14.593 11.79 4.4711 4.4015 8.4632 9.19 11.976 14.366 3.513 5.1756 6.4793 10.639 8.8991 16.39s4.2465 11.679 5.48 17.784c1.2336 6.1051 1.8504 12.27 1.8504 18.495z" fill="#cb6ce6"/>
     <path d="m200.1 82c-2.8 0-5-2.2-5-5v-54.2c0-2.8 2.2-5 5-5s5 2.2 5 5v54.2c0 2.7-2.3 5-5 5zm5 295.8v-54.2c0-2.8-2.2-5-5-5s-5 2.2-5 5v54.2c0 2.8 2.2 5 5 5s5-2.2 5-5zm-125.4-177.5c0-2.8-2.2-5-5-5h-55c-2.8 0-5 2.2-5 5s2.2 5 5 5h55c2.8 0 5-2.2 5-5zm305.8 0c0-2.8-2.2-5-5-5h-55c-2.8 0-5 2.2-5 5s2.2 5 5 5h55c2.8 0 5-2.2 5-5zm-270.5-83.7c1.9-2 1.9-5.1-0.1-7.1l-38.9-38.3c-2-1.9-5.1-1.9-7.1 0.1-1.9 2-1.9 5.1 0.099998 7.1l38.9 38.3c1 1 2.2 1.4 3.5 1.4s2.6-0.5 3.6-1.5zm216.2 212.8c1.9-2 1.9-5.1-0.1-7.1l-38.9-38.3c-2-1.9-5.1-1.9-7.1 0.10001-1.9 2-1.9 5.1 0.1 7.1l38.9 38.3c1 1 2.2 1.4 3.5 1.4s2.6-0.5 3.6-1.5zm-255.2 0 38.9-38.3c2-1.9 2-5.1 0.1-7.1s-5.1-2-7.1-0.10001l-38.9 38.4c-2 1.9-2 5.1-0.1 7.1 1 1 2.3 1.5 3.6 1.5s2.5-0.5 3.5-1.5zm216.2-212.7 38.9-38.3c2-1.9 2-5.1 0.1-7.1s-5.1-2-7.1-0.1l-38.9 38.3c-2 1.9-2 5.1-0.1 7.1 1 1 2.3 1.5 3.6 1.5s2.6-0.5 3.5-1.4zm-138.3-26c2.5-1.1 3.7-4 2.7-6.5l-9.8-23.3c-1.1-2.5-4-3.7-6.6-2.7-2.5 1.1-3.7 4-2.7 6.5l9.8 23.3c0.8 1.9 2.7 3.1 4.6 3.1 0.80001 0 1.4-0.1 2-0.4zm106 251.8c2.5-1.1 3.7-4 2.7-6.5l-9.8-23.3c-1.1-2.5-4-3.7-6.6-2.7-2.5 1.1-3.7 4-2.7 6.5l9.8 23.3c0.80001 1.9 2.7 3.1 4.6 3.1 0.70002 0 1.4-0.19998 2-0.39999zm-197.7-80.6 23.7-9.7c2.6-1 3.8-4 2.7-6.5-1-2.6-4-3.8-6.5-2.7l-23.7 9.7c-2.6 1-3.8 4-2.7 6.5 0.8 1.9 2.7 3.1 4.6 3.1 0.60001-3e-5 1.3-0.10001 1.9-0.40003zm255.8-104.2 23.7-9.7c2.6-1 3.8-4 2.7-6.5-1-2.6-4-3.8-6.5-2.7l-23.7 9.7c-2.6 1-3.8 4-2.7 6.5 0.79999 1.9 2.7 3.1 4.6 3.1 0.69998-0.10001 1.3-0.20002 1.9-0.40001zm-65.2-69.6 9.8-23.3c1.1-2.5-0.10001-5.5-2.7-6.5-2.6-1.1-5.5 0.1-6.6 2.7l-9.8 23.3c-1.1 2.5 0.10001 5.5 2.7 6.5 0.60001 0.3 1.3 0.4 1.9 0.4 2-0.10001 3.9-1.2 4.7-3.1zm-106 251.7 9.8-23.3c1.1-2.5-0.10001-5.5-2.7-6.5-2.6-1.1-5.5 0.10001-6.6 2.7l-9.8 23.3c-1.1 2.5 0.10001 5.5 2.7 6.5 0.6 0.29999 1.3 0.39999 1.9 0.39999 2 0 3.9-1.2 4.7-3.1zm-58.1-184.9c1-2.6-0.2-5.5-2.7-6.5l-23.7-9.7c-2.6-1-5.5 0.19999-6.5 2.7-1 2.6 0.2 5.5 2.7 6.5l23.7 9.7c0.6 0.3 1.3 0.39999 1.9 0.39999 1.9 2e-5 3.8-1.2 4.6-3.1zm255.8 104.3c1-2.6-0.20001-5.5-2.7-6.5l-23.8-9.7c-2.6-1-5.5 0.2-6.5 2.7-1 2.6 0.20001 5.5 2.7 6.5l23.7 9.7c0.60001 0.29999 1.3 0.4 1.9 0.4 2 0 3.9-1.2 4.7-3.1z"/>
    </g>
   </g>
  </g>
 </g>
</svg>
