<?xml version="1.0" encoding="UTF-8"?>
<svg width="10.848mm" height="9.6191mm" version="1.1" viewBox="0 0 10.848 9.6191" xmlns="http://www.w3.org/2000/svg" xmlns:cc="http://creativecommons.org/ns#" xmlns:dc="http://purl.org/dc/elements/1.1/" xmlns:rdf="http://www.w3.org/1999/02/22-rdf-syntax-ns#">
 <defs>
  <clipPath id="clipPath916">
   <path d="m468.75 503.98h625v553.13h-625z" clip-rule="evenodd"/>
  </clipPath>
 </defs>
 <metadata>
  <rdf:RDF>
   <cc:Work rdf:about="">
    <dc:format>image/svg+xml</dc:format>
    <dc:type rdf:resource="http://purl.org/dc/dcmitype/StillImage"/>
    <dc:title/>
   </cc:Work>
  </rdf:RDF>
 </metadata>
 <g transform="translate(-133.96 -2.6037)">
  <g transform="matrix(.017461 0 0 .017461 125.74 -6.2348)">
   <g clip-path="url(#clipPath916)">
    <g transform="matrix(23.01 0 0 22.951 413.09 414.47)" fill="#8c52ff">
     <path d="m27.5 15.05v-4.55c-2e-6 -0.16415-0.01601-0.32673-0.04804-0.48773-0.032025-0.161-0.079447-0.31733-0.14227-0.46898-0.062818-0.15166-0.13983-0.29573-0.23102-0.43222-0.091198-0.13649-0.19483-0.26277-0.31091-0.37884-0.11607-0.11607-0.24236-0.21971-0.37884-0.31091-0.13649-0.091199-0.28056-0.16821-0.43222-0.23103-0.15166-0.062818-0.30798-0.11024-0.46898-0.14226-0.161-0.032024-0.32357-0.048037-0.48772-0.048037h-0.61l-0.91-3.62c-0.01544-0.064207-0.04253-0.12305-0.08127-0.17652-0.03875-0.053472-0.08623-0.097539-0.14244-0.1322s-0.1169-0.057299-0.18208-0.067913-0.12992-0.0084-0.19422 0.00663l-16.44 3.99h-1.44c-0.16415 0-0.32673 0.016012-0.48773 0.048038-0.161 0.032024-0.31733 0.079446-0.46898 0.14226-0.15166 0.062818-0.29573 0.13983-0.43222 0.23103-0.13649 0.091198-0.26277 0.19483-0.37884 0.31091-0.11607 0.11607-0.21971 0.24235-0.31091 0.37884-0.091198 0.13649-0.16821 0.28056-0.23102 0.43222-0.062818 0.15166-0.11024 0.30798-0.14226 0.46898-0.032025 0.161-0.048037 0.32357-0.048037 0.48773v15c-2e-7 0.16415 0.016012 0.32673 0.048037 0.48773 0.032024 0.161 0.079446 0.31732 0.14226 0.46898 0.062818 0.15166 0.13983 0.29573 0.23102 0.43222 0.091198 0.13649 0.19483 0.26277 0.31091 0.37884 0.11607 0.11607 0.24235 0.21971 0.37884 0.31091s0.28056 0.16821 0.43222 0.23102c0.15166 0.06282 0.30798 0.11024 0.46898 0.14226 0.161 0.032024 0.32357 0.048038 0.48773 0.04804h20c0.16415-2e-6 0.32672-0.01602 0.48772-0.04804s0.31733-0.07944 0.46898-0.14226c0.15166-0.06282 0.29573-0.13983 0.43222-0.23102 0.13649-0.0912 0.26277-0.19483 0.37884-0.31091s0.21971-0.24236 0.31091-0.37884c0.0912-0.13649 0.16821-0.28056 0.23102-0.43222 0.06282-0.15166 0.11024-0.30798 0.14227-0.46898 0.032024-0.161 0.048036-0.32358 0.048038-0.48773v-4.5c0.1401-0.02857 0.27675-0.06887 0.40993-0.1209 0.13319-0.05203 0.26097-0.11504 0.38334-0.18901 0.12238-0.07397 0.23756-0.15784 0.34555-0.25159 0.10799-0.09376 0.2072-0.19603 0.29765-0.30682 0.09044-0.11079 0.17079-0.22848 0.24104-0.35308 0.07025-0.12459 0.12938-0.25426 0.17739-0.38901 0.04801-0.13474 0.08419-0.2726 0.10856-0.41356 0.02436-0.14096 0.03654-0.28297 0.03654-0.42603v-1c0.0029-0.14511-0.0067-0.28938-0.02891-0.4328-0.0222-0.14343-0.05663-0.28386-0.10329-0.42129s-0.10484-0.2698-0.17455-0.3971-0.1499-0.24761-0.24057-0.36095c-0.09067-0.11333-0.19044-0.21798-0.29934-0.31393-0.10889-0.09595-0.22526-0.18178-0.3491-0.25746-0.12384-0.075687-0.25328-0.1401-0.38834-0.19324-0.13506-0.053143-0.27369-0.094213-0.4159-0.12321zm-4.86-10 0.72 2.95h-12.68zm2.36 21.95h-20c-0.098492-2e-6 -0.19604-0.0096-0.29264-0.02882s-0.1904-0.047674-0.28139-0.085365c-0.090994-0.037691-0.17744-0.083897-0.25933-0.13862s-0.15766-0.1169-0.2273-0.18654c-0.069644-0.069644-0.13183-0.14541-0.18654-0.22731-0.054719-0.081892-0.10092-0.16834-0.13861-0.25933-0.037691-0.090994-0.066144-0.18479-0.085359-0.28139-0.019215-0.096598-0.028822-0.19414-0.028822-0.29263v-15c-2e-7 -0.09849 0.00961-0.19604 0.028822-0.29264 0.019215-0.0966 0.047667-0.1904 0.085359-0.28139 0.037691-0.090995 0.083896-0.17744 0.13861-0.25933 0.054719-0.081892 0.1169-0.15766 0.18654-0.2273 0.069644-0.069644 0.14541-0.13183 0.22731-0.18654 0.081892-0.054719 0.16834-0.10092 0.25933-0.13861 0.090994-0.037691 0.18479-0.066144 0.28139-0.085359 0.096599-0.019216 0.19414-0.028823 0.29264-0.028823h20c0.09849 0 0.19603 0.00961 0.29263 0.028822 0.0966 0.019214 0.1904 0.047667 0.28139 0.085357 0.09099 0.037691 0.17744 0.083896 0.25933 0.13861 0.08189 0.054719 0.15766 0.1169 0.2273 0.18655 0.06964 0.069644 0.13182 0.14541 0.18654 0.2273s0.10092 0.16834 0.13861 0.25933c0.03769 0.090995 0.06615 0.18479 0.08536 0.28139 0.019216 0.096599 0.028823 0.19414 0.028823 0.29264v4.5h-4.5c-0.16415 0-0.32673 0.01601-0.48773 0.04804-0.161 0.03202-0.31733 0.07944-0.46898 0.14226-0.15166 0.06282-0.29573 0.13983-0.43222 0.23103s-0.26277 0.19483-0.37884 0.31091c-0.11607 0.11607-0.21971 0.24235-0.31091 0.37884s-0.16821 0.28056-0.23102 0.43222c-0.06282 0.15166-0.11024 0.30798-0.14226 0.46898-0.032025 0.16099-0.048037 0.32357-0.048037 0.48772v1c0 0.16415 0.01601 0.32673 0.04804 0.48773 0.03202 0.161 0.07945 0.31733 0.14226 0.46898 0.06282 0.15166 0.13983 0.29573 0.23102 0.43222 0.0912 0.13649 0.19483 0.26277 0.31091 0.37884 0.11607 0.11607 0.24235 0.21971 0.37884 0.31091s0.28056 0.1682 0.43222 0.23102 0.30798 0.11024 0.46898 0.14226c0.16099 0.032025 0.32357 0.048037 0.48772 0.048037h4.5v4.5c0 0.09849-0.0096 0.19604-0.02882 0.29263-0.01922 0.0966-0.04767 0.19039-0.08536 0.28139-0.03769 0.09099-0.08389 0.17744-0.13861 0.25933-0.05472 0.0819-0.1169 0.15766-0.18655 0.22731-0.06964 0.06964-0.14541 0.13182-0.22731 0.18654-0.08189 0.05472-0.16834 0.10092-0.25933 0.13862-0.09099 0.03769-0.18479 0.06614-0.28139 0.08536-0.096602 0.019216-0.19414 0.028823-0.29264 0.028825zm3.5-8.5c-4.35e-4 0.15474-0.02424 0.30579-0.07142 0.45316s-0.11553 0.28416-0.20504 0.41038c-0.08952 0.12622-0.19601 0.23595-0.31949 0.32921s-0.25816 0.16568-0.40405 0.21726c-0.16109 0.06098-0.32776 0.090978-0.5 0.09h-5c-0.09849-2e-6 -0.19604-0.0096-0.29264-0.02882s-0.1904-0.04767-0.28139-0.08536-0.17744-0.0839-0.25933-0.13862-0.15766-0.1169-0.2273-0.18654-0.13183-0.14541-0.18655-0.22731c-0.05472-0.08189-0.10092-0.16834-0.13861-0.25933s-0.06614-0.18479-0.08536-0.28139c-0.019213-0.096601-0.02882-0.19415-0.028818-0.29264v-1c0-0.09849 0.0096-0.19604 0.02882-0.29264 0.01921-0.0966 0.04767-0.1904 0.08536-0.28139s0.08389-0.17744 0.13861-0.25933 0.1169-0.15766 0.18654-0.2273 0.14541-0.13183 0.22731-0.18654c0.08189-0.05472 0.16834-0.10092 0.25933-0.13861s0.18479-0.06614 0.28139-0.08536c0.096602-0.019215 0.19415-0.028822 0.29264-0.028822h5c0.17224-9.79e-4 0.33891 0.02902 0.5 0.09 0.14589 0.05158 0.28057 0.124 0.40405 0.21726s0.22997 0.203 0.31948 0.32921c0.08952 0.12622 0.15786 0.26301 0.20505 0.41038 0.04718 0.14737 0.07099 0.29842 0.07142 0.45316z"/>
     <path d="m23 16.5c-0.09849 0-0.19604 0.0096-0.29264 0.02882-0.0966 0.01921-0.1904 0.04767-0.28139 0.08536s-0.17744 0.0839-0.25933 0.13861c-0.08189 0.05472-0.15766 0.1169-0.2273 0.18654s-0.13182 0.14541-0.18654 0.2273-0.10092 0.16834-0.13861 0.25933-0.06615 0.18479-0.08536 0.28139c-0.019213 0.0966-0.02882 0.19414-0.02882 0.29264 0 0.09849 0.0096 0.19604 0.02882 0.29263 0.01921 0.0966 0.04767 0.1904 0.08536 0.28139s0.08389 0.17744 0.13861 0.25933 0.1169 0.15766 0.18654 0.2273 0.14541 0.13182 0.2273 0.18654 0.16834 0.10092 0.25933 0.13862c0.09099 0.03769 0.18479 0.06614 0.28139 0.08536 0.0966 0.01921 0.19414 0.02882 0.29264 0.02882 0.09849-2e-6 0.19604-0.0096 0.29263-0.02882 0.0966-0.01922 0.1904-0.04767 0.28139-0.08536s0.17744-0.08389 0.25933-0.13862c0.08189-0.05472 0.15766-0.1169 0.22731-0.18654 0.06964-0.06964 0.13182-0.14541 0.18654-0.22731 0.05472-0.08189 0.10092-0.16834 0.13862-0.25933 0.03769-0.09099 0.06614-0.18479 0.08536-0.28139 0.019214-0.096598 0.028821-0.19414 0.028823-0.29263-2e-6 -0.09849-0.0096-0.19604-0.02882-0.29264s-0.04767-0.1904-0.08536-0.28139-0.08389-0.17744-0.13862-0.25933c-0.05472-0.08189-0.1169-0.15766-0.18654-0.2273-0.06965-0.06965-0.14541-0.13183-0.22731-0.18654-0.08189-0.05472-0.16834-0.10092-0.25933-0.13861s-0.18479-0.06615-0.28139-0.08536c-0.096601-0.019213-0.19415-0.02882-0.29264-0.02882zm0 2c-0.0663-2e-6 -0.13009-0.01269-0.19134-0.03806-0.06126-0.02537-0.11533-0.0615-0.16221-0.10838s-0.08301-0.10096-0.10839-0.16221c-0.025371-0.061259-0.038057-0.12504-0.038057-0.19134s0.01269-0.13009 0.03806-0.19134c0.02537-0.06126 0.0615-0.11532 0.10839-0.16221 0.04688-0.04688 0.10095-0.08301 0.16221-0.10839 0.061255-0.025373 0.12504-0.038059 0.19134-0.038059s0.13008 0.01269 0.19134 0.03806 0.11533 0.0615 0.16221 0.10839c0.04688 0.04688 0.08301 0.10095 0.10838 0.16221s0.03806 0.12504 0.03806 0.19134c-2e-6 0.0663-0.01269 0.13008-0.03806 0.19134s-0.0615 0.11533-0.10838 0.16221-0.10096 0.08301-0.16221 0.10838c-0.061256 0.025372-0.12504 0.03806-0.19134 0.038062z"/>
    </g>
   </g>
  </g>
 </g>
</svg>
